<svg width="336" height="40" viewBox="0 0 336 40" fill="none" xmlns="http://www.w3.org/2000/svg">
<g clip-path="url(#clip0_74_2919)">
<path fill-rule="evenodd" clip-rule="evenodd" d="M139.028 40H123.734L142.953 1.75675H162.173L181.393 40H166.098L162.308 32.2973H146.879L150.668 24.5946H158.519L152.563 12.8378L139.028 40ZM103.837 16.8919H81.5042L77.7144 24.5946H103.972C102.484 29.054 98.1524 32.4324 93.1444 32.4324H66.2096L62.4198 40.1351H100.724C111.281 40.1351 119.944 31.4865 119.944 20.9459C119.944 10.4054 111.281 1.62161 100.724 1.62161H66.2096L62.4198 9.32432H93.009C98.017 9.32432 102.213 12.4324 103.837 16.8919ZM20.1905 32.2973L23.9803 24.5946H35.4851C39.6809 24.5946 43.2001 21.2162 43.2001 16.8919C43.2001 12.7027 39.8163 9.18918 35.4851 9.18918H16.2653V39.8649H0.970703V1.62161H43.2001C51.5918 1.62161 58.4947 8.51351 58.4947 16.8919C58.4947 25.2703 51.5918 32.1622 43.2001 32.1622H20.1905V32.2973Z" fill="#232C77"/>
<path fill-rule="evenodd" clip-rule="evenodd" d="M264.633 30.6757L265.31 29.5946H266.799C267.34 29.5946 267.882 29.0541 267.882 28.5135C267.882 27.973 267.34 27.4324 266.799 27.4324H264.092V31.7568H261.926V26.3514H268.017C269.235 26.3514 270.183 27.2973 270.183 28.5135C270.183 29.7297 269.235 30.6757 268.017 30.6757H264.633ZM239.052 28.3784H235.804L235.262 29.4595H239.052C238.782 30.1351 238.24 30.5405 237.563 30.5405H233.774L233.232 31.6216H238.646C240.135 31.6216 241.353 30.4054 241.353 28.9189C241.353 27.4324 240.135 26.2162 238.646 26.2162H233.774L233.232 27.2973H237.563C238.24 27.2973 238.782 27.8378 239.052 28.3784ZM254.618 29.5946H257.866L258.407 28.5135H254.618C254.888 27.8378 255.43 27.4324 256.242 27.4324H260.032L260.573 26.3514H255.159C253.67 26.3514 252.452 27.5676 252.452 29.0541C252.452 30.5405 253.67 31.7568 255.159 31.7568H260.032L260.573 30.6757H256.242C255.43 30.6757 254.753 30.1351 254.618 29.5946ZM282.364 26.2162C280.063 26.2162 278.304 27.4324 278.304 28.9189C278.304 30.4054 280.199 31.6216 282.364 31.6216C284.665 31.6216 286.425 30.4054 286.425 28.9189C286.56 27.4324 284.665 26.2162 282.364 26.2162ZM282.364 27.2973C281.282 27.2973 280.469 27.973 280.469 28.9189C280.469 29.8649 281.282 30.5405 282.364 30.5405C283.447 30.5405 284.259 29.8649 284.259 28.9189C284.395 28.1081 283.447 27.2973 282.364 27.2973ZM210.358 26.2162H212.524V31.6216H210.358V28.3784L208.463 30.5405L206.568 28.3784V31.6216H204.403V26.2162H206.568L208.463 28.3784L210.358 26.2162ZM229.578 26.2162H231.743V31.6216H229.578V29.4595H225.653V31.6216H223.487V26.2162H225.653V28.3784H229.442V26.2162H229.578ZM248.662 26.2162H250.828V31.6216H248.662V29.4595H244.872V31.6216H242.707V26.2162H244.872V28.3784H248.662V26.2162ZM271.401 31.7568H273.567V27.4324H277.627L278.169 26.3514H271.266V31.7568H271.401ZM219.968 26.2162H222.133V31.6216H219.968V27.8378L216.178 31.6216H214.012V26.2162H216.178V30L219.968 26.2162ZM207.11 38.7838L207.786 37.7027H209.275C209.817 37.7027 210.358 37.1622 210.358 36.6216C210.358 36.0811 209.817 35.5405 209.275 35.5405H206.568V39.8649H204.403V34.3243H210.493C211.711 34.3243 212.659 35.2703 212.659 36.4865C212.659 37.7027 211.711 38.6486 210.493 38.6486H207.11V38.7838ZM240.812 35.5405L241.353 34.4595H235.939C234.45 34.4595 233.232 35.6757 233.232 37.1622C233.232 38.6486 234.45 39.8649 235.939 39.8649H240.812L241.353 38.7838H237.022C236.075 38.7838 235.398 38.1081 235.398 37.1622C235.398 36.2162 236.075 35.5405 237.022 35.5405H240.812ZM231.202 35.5405L231.743 34.4595H226.194C224.705 34.4595 223.487 35.6757 223.487 37.1622C223.487 38.6486 224.705 39.8649 226.194 39.8649H231.067L231.608 38.7838H227.277C226.329 38.7838 225.653 38.1081 225.653 37.1622C225.653 36.2162 226.329 35.5405 227.277 35.5405H231.202ZM218.073 34.4595C215.772 34.4595 214.012 35.6757 214.012 37.1622C214.012 38.6486 215.907 39.8649 218.073 39.8649C220.374 39.8649 222.133 38.6486 222.133 37.1622C222.133 35.6757 220.239 34.4595 218.073 34.4595ZM218.073 35.5405C216.99 35.5405 216.178 36.2162 216.178 37.1622C216.178 38.1081 216.99 38.7838 218.073 38.7838C219.156 38.7838 219.968 38.1081 219.968 37.1622C219.968 36.3514 219.02 35.5405 218.073 35.5405ZM248.662 34.4595H250.828V40H248.662V36.2162L244.872 40H242.707V34.4595H244.872V38.2432L248.662 34.4595ZM258.272 34.4595H260.438V40H258.272V36.2162L254.482 40H252.317V34.4595H254.482V38.2432L258.272 34.4595ZM273.702 22.4324V21.3514H276.95C277.221 21.3514 277.492 21.6216 277.492 21.8919C277.492 22.1622 277.221 22.4324 276.95 22.4324H273.702V22.4324ZM278.033 18.1081H273.702H271.536V23.5135H273.702H278.033C278.981 23.5135 279.657 22.8378 279.657 21.8919C279.657 21.4865 279.522 21.0811 279.251 20.8108C279.522 20.5405 279.657 20.1351 279.657 19.7297C279.657 18.7838 278.981 18.1081 278.033 18.1081ZM214.554 23.5135H216.719V19.1892H220.78L221.321 18.1081H214.418V23.5135H214.554ZM259.896 19.1892L260.438 18.1081H254.888C253.399 18.1081 252.181 19.3243 252.181 20.8108C252.181 22.2973 253.399 23.5135 254.888 23.5135H259.761L260.302 22.4324H255.971C255.024 22.4324 254.347 21.7568 254.347 20.8108C254.347 19.8649 255.024 19.1892 255.971 19.1892H259.896ZM239.188 18.1081H241.353V23.5135H239.188V21.3514H235.398V23.5135H233.232V18.1081H235.398V20.2703H239.188V18.1081ZM285.207 19.1892C284.124 19.1892 283.312 19.8649 283.312 20.8108C283.312 21.7568 284.124 22.4324 285.207 22.4324C286.29 22.4324 287.102 21.7568 287.102 20.8108C287.102 19.8649 286.154 19.1892 285.207 19.1892ZM285.207 18.1081C282.906 18.1081 281.146 19.3243 281.146 20.8108C281.146 22.2973 283.041 23.5135 285.207 23.5135C287.508 23.5135 289.267 22.2973 289.267 20.8108C289.267 19.3243 287.372 18.1081 285.207 18.1081ZM250.963 18.1081H243.248L242.707 19.1892H245.684V23.5135H247.85V19.1892H250.286L250.963 18.1081ZM270.048 18.1081H262.333L261.791 19.1892H264.769V23.5135H266.934V19.1892H269.371L270.048 18.1081ZM225.653 21.3514H228.901L229.442 20.2703H225.653C225.923 19.5946 226.465 19.1892 227.141 19.1892H230.931L231.473 18.1081H226.059C224.57 18.1081 223.352 19.3243 223.352 20.8108C223.352 22.2973 224.57 23.5135 226.059 23.5135H230.931L231.473 22.4324H227.141C226.465 22.4324 225.923 22.027 225.653 21.3514ZM206.568 23.5135H204.403L207.11 18.1081H209.817L212.524 23.5135H210.358L209.817 22.4324H207.651L208.192 21.3514H209.275L208.463 19.7297L206.568 23.5135ZM273.702 20.2703V19.1892H276.95C277.221 19.1892 277.492 19.4595 277.492 19.7297C277.492 20 277.221 20.2703 276.95 20.2703H273.702ZM287.102 9.86487H289.267V15.2703H287.102V13.1081H283.312C282.094 13.1081 281.146 12.1622 281.146 10.9459V9.86487H283.312V10.9459C283.312 11.4865 283.853 12.027 284.395 12.027H287.102V9.86487ZM309.841 9.86487H312.006V12.5676L315.796 9.86487H317.962L314.172 12.5676L317.962 15.2703H315.796L313.089 13.3784L312.006 14.1892V15.2703H309.841V9.86487ZM307.946 10.9459L308.487 9.86487H302.938C301.449 9.86487 300.231 11.0811 300.231 12.5676C300.231 14.0541 301.449 15.2703 302.938 15.2703H307.81L308.352 14.1892H304.02C303.073 14.1892 302.396 13.5135 302.396 12.5676C302.396 11.6216 303.073 10.9459 304.02 10.9459H307.946V10.9459ZM242.707 15.2703H244.872V10.9459H250.286L250.828 9.86487H244.737H242.571V15.2703H242.707ZM219.968 9.86487H222.133V15.2703H219.968V13.1081H216.178V15.2703H214.012V9.86487H216.178V12.027H219.968V9.86487ZM322.157 10.9459C321.075 10.9459 320.263 11.6216 320.263 12.5676C320.263 13.5135 321.075 14.1892 322.157 14.1892C323.24 14.1892 324.052 13.5135 324.052 12.5676C324.052 11.6216 323.24 10.9459 322.157 10.9459ZM322.157 9.86487C319.856 9.86487 318.097 11.0811 318.097 12.5676C318.097 14.0541 319.992 15.2703 322.157 15.2703C324.458 15.2703 326.218 14.0541 326.218 12.5676C326.218 11.0811 324.458 9.86487 322.157 9.86487ZM270.048 9.86487H262.333L261.791 10.9459H264.769V15.2703H266.934V10.9459H269.371L270.048 9.86487ZM292.922 13.1081H296.17L296.712 12.027H292.922C293.192 11.3514 293.734 10.9459 294.411 10.9459H298.2L298.742 9.86487H293.328C291.839 9.86487 290.621 11.0811 290.621 12.5676C290.621 14.0541 291.839 15.2703 293.328 15.2703H298.2L298.742 14.1892H294.411C293.734 14.1892 293.192 13.7838 292.922 13.1081ZM329.872 13.1081H333.121L333.662 12.027H329.872C330.143 11.3514 330.685 10.9459 331.361 10.9459H335.151L335.693 9.86487H330.278C328.79 9.86487 327.571 11.0811 327.571 12.5676C327.571 14.0541 328.79 15.2703 330.278 15.2703H335.151L335.693 14.1892H331.361C330.82 14.1892 330.143 13.7838 329.872 13.1081ZM225.788 13.1081H229.036L229.578 12.027H225.788C226.059 11.3514 226.6 10.9459 227.277 10.9459H231.067L231.608 9.86487H226.194C224.705 9.86487 223.487 11.0811 223.487 12.5676C223.487 14.0541 224.705 15.2703 226.194 15.2703H231.067L231.608 14.1892H227.277C226.6 14.1892 226.059 13.7838 225.788 13.1081ZM254.618 13.1081H257.866L258.407 12.027H254.618C254.888 11.3514 255.43 10.9459 256.242 10.9459H260.032L260.573 9.86487H255.159C253.67 9.86487 252.452 11.0811 252.452 12.5676C252.452 14.0541 253.67 15.2703 255.159 15.2703H260.032L260.573 14.1892H256.242C255.43 14.1892 254.753 13.7838 254.618 13.1081ZM210.223 12.027H206.974L206.433 13.1081H210.223C209.952 13.7838 209.41 14.1892 208.734 14.1892H204.944L204.403 15.2703H209.817C211.305 15.2703 212.524 14.0541 212.524 12.5676C212.524 11.0811 211.305 9.86487 209.817 9.86487H204.944L204.403 10.9459H208.734C209.41 10.9459 209.952 11.3514 210.223 12.027ZM235.804 14.1892L236.481 13.1081H237.969C238.511 13.1081 239.052 12.5676 239.052 12.027C239.052 11.4865 238.511 10.9459 237.969 10.9459H235.262V15.2703H233.097V9.86487H239.188C240.406 9.86487 241.353 10.8108 241.353 12.027C241.353 13.2432 240.406 14.1892 239.188 14.1892H235.804V14.1892ZM277.492 9.86487H279.657V15.2703H277.492V11.4865L273.702 15.2703H271.536V9.86487H273.702V13.6486L277.492 9.86487ZM207.11 6.08108L207.786 5H209.275C209.817 5 210.358 4.45946 210.358 3.91892C210.358 3.37838 209.817 2.83784 209.275 2.83784H206.568V7.16216H204.403V1.75676H210.493C211.711 1.75676 212.659 2.7027 212.659 3.91892C212.659 5.13514 211.711 6.08108 210.493 6.08108H207.11V6.08108ZM292.922 5H296.17L296.712 3.91892H292.922C293.192 3.24324 293.734 2.83784 294.411 2.83784H298.2L298.742 1.75676H293.328C291.839 1.75676 290.621 2.97297 290.621 4.45946C290.621 5.94595 291.839 7.16216 293.328 7.16216H298.2L298.742 6.08108H294.411C293.734 6.08108 293.192 5.54054 292.922 5ZM218.073 1.62162C215.772 1.62162 214.012 2.83784 214.012 4.32432C214.012 5.81081 215.907 7.02703 218.073 7.02703C220.374 7.02703 222.133 5.81081 222.133 4.32432C222.133 2.83784 220.239 1.62162 218.073 1.62162ZM218.073 2.7027C216.99 2.7027 216.178 3.37838 216.178 4.32432C216.178 5.27027 216.99 5.94595 218.073 5.94595C219.156 5.94595 219.968 5.27027 219.968 4.32432C219.968 3.51351 219.02 2.7027 218.073 2.7027ZM285.207 1.62162C282.906 1.62162 281.146 2.83784 281.146 4.32432C281.146 5.81081 283.041 7.02703 285.207 7.02703C287.508 7.02703 289.267 5.81081 289.267 4.32432C289.267 2.83784 287.372 1.62162 285.207 1.62162ZM285.207 2.7027C284.124 2.7027 283.312 3.37838 283.312 4.32432C283.312 5.27027 284.124 5.94595 285.207 5.94595C286.29 5.94595 287.102 5.27027 287.102 4.32432C287.102 3.51351 286.154 2.7027 285.207 2.7027ZM231.202 2.7027L231.743 1.62162H226.329C224.84 1.62162 223.622 2.83784 223.622 4.32432C223.622 5.81081 224.84 7.02703 226.329 7.02703H231.202L231.743 5.94595H227.412C226.465 5.94595 225.788 5.27027 225.788 4.32432C225.788 3.37838 226.465 2.7027 227.412 2.7027H231.202ZM240.812 2.7027L241.353 1.62162H235.939C234.45 1.62162 233.232 2.83784 233.232 4.32432C233.232 5.81081 234.45 7.02703 235.939 7.02703H240.812L241.353 5.94595H237.022C236.075 5.94595 235.398 5.27027 235.398 4.32432C235.398 3.37838 236.075 2.7027 237.022 2.7027H240.812ZM269.506 2.7027L270.048 1.62162H264.633C263.145 1.62162 261.926 2.83784 261.926 4.32432C261.926 5.81081 263.145 7.02703 264.633 7.02703H269.506L270.048 5.94595H265.716C264.769 5.94595 264.092 5.27027 264.092 4.32432C264.092 3.37838 264.769 2.7027 265.716 2.7027H269.506ZM248.662 1.62162H250.828V7.02703H248.662V3.24324L244.872 7.02703H242.707V1.62162H244.872V5.40541L248.662 1.62162ZM258.272 1.62162H260.438V7.02703H258.272V3.24324L254.482 7.02703H252.317V1.62162H254.482V5.40541L258.272 1.62162ZM271.401 1.62162H273.567V4.32432L277.356 1.62162H279.522L275.732 4.32432L279.522 7.02703H277.356L274.649 5.13514L273.567 5.94595V7.02703H271.401V1.62162ZM257.731 0H255.7L255.159 1.08108H257.189L257.731 0Z" fill="#232C77"/>
</g>
<defs>
<clipPath id="clip0_74_2919">
<rect width="334.857" height="40" fill="white" transform="translate(0.970703)"/>
</clipPath>
</defs>
</svg>
