<svg width="999" height="310" viewBox="0 0 999 310" fill="none" xmlns="http://www.w3.org/2000/svg">
<g clip-path="url(#clip0_453_868)">
<path fill-rule="evenodd" clip-rule="evenodd" d="M106.292 177.096L132.908 132.904H191.314C202.588 132.904 213.401 128.257 221.374 119.984C229.346 111.711 233.825 100.49 233.825 88.7905C233.825 77.0907 229.346 65.8702 221.374 57.5972C213.401 49.3242 202.588 44.6765 191.314 44.6765H85.0736V221.21H0.0515137V0.640344H233.825C256.356 0.701953 277.947 10.0172 293.879 26.5498C309.811 43.0824 318.787 65.4877 318.847 88.8683C318.768 112.243 309.785 134.636 293.857 151.164C277.93 167.692 256.35 177.014 233.825 177.096H106.292ZM569.864 88.1681H446.38L425.087 132.282H570.464C566.156 145.269 558.076 156.551 547.334 164.577C536.593 172.602 523.719 176.976 510.484 177.096H361.358L340.14 221.21H552.62C566.814 221.601 580.94 219.038 594.164 213.672C607.388 208.305 619.442 200.245 629.614 189.965C639.787 179.685 647.872 167.395 653.393 153.82C658.914 140.245 661.758 125.66 661.758 110.925C661.758 96.1908 658.914 81.6056 653.393 68.0304C647.872 54.4552 639.787 42.1652 629.614 31.8856C619.442 21.606 607.388 13.5451 594.164 8.17872C580.94 2.81231 566.814 0.24909 552.62 0.640344H361.358L340.14 44.7543H509.884C522.957 44.7712 535.712 48.9402 546.435 56.7012C557.157 64.4621 565.333 75.443 569.864 88.1681ZM764.8 221.21H680.153L786.393 0.640344H892.708L998.949 221.21H913.927L893.008 177.096H807.611L828.904 132.904H872.09L839.776 65.4498L764.8 221.21Z" fill="#012265"/>
<path fill-rule="evenodd" clip-rule="evenodd" d="M421.863 300.568L426.661 291.777H437.158C439.405 291.777 441.56 290.85 443.149 289.202C444.738 287.553 445.63 285.317 445.63 282.985C445.63 280.653 444.738 278.417 443.149 276.768C441.56 275.12 439.405 274.193 437.158 274.193H418.039V309.36H403.044V265.168H445.255C449.465 265.507 453.383 267.531 456.181 270.812C458.979 274.093 460.438 278.375 460.25 282.752C460.457 287.134 459.005 291.426 456.203 294.711C453.401 297.997 449.472 300.015 445.255 300.335L421.863 300.568ZM956.737 309.282H941.742V265.168H956.737V296.289L983.578 265.168H998.574V309.127H983.578V278.006L956.737 309.127V309.282ZM889.634 309.282H874.639V265.168H889.634V296.289L916.476 265.168H931.471V309.127H916.476V278.006L889.634 309.127V309.282ZM242.822 282.829H220.329L216.505 291.699H242.672C242.014 294.191 240.603 296.398 238.646 297.994C236.689 299.591 234.289 300.493 231.8 300.568H205.184L201.36 309.36H239.973C245.62 309.36 251.036 307.032 255.029 302.888C259.022 298.745 261.266 293.124 261.266 287.264C261.266 281.404 259.022 275.784 255.029 271.64C251.036 267.496 245.62 265.168 239.973 265.168H205.184L201.36 273.96H232.025C234.469 274.048 236.825 274.928 238.761 276.477C240.698 278.026 242.118 280.166 242.822 282.596V282.829ZM351.611 291.932H374.104L377.927 283.141H351.686C352.341 280.64 353.749 278.423 355.705 276.813C357.661 275.203 360.062 274.285 362.557 274.193H389.399L393.072 265.168H354.76C349.519 265.729 344.665 268.287 341.135 272.347C337.606 276.407 335.653 281.68 335.653 287.147C335.653 292.615 337.606 297.888 341.135 301.948C344.665 306.008 349.519 308.565 354.76 309.127H389.249L393.072 300.335H362.408C359.961 300.259 357.6 299.383 355.661 297.832C353.722 296.281 352.305 294.135 351.611 291.699V291.932ZM546.547 265.402C530.652 265.402 517.831 275.205 517.831 287.42C517.831 299.635 530.652 309.36 546.547 309.36C562.442 309.36 575.338 299.557 575.338 287.42C575.338 275.283 562.367 265.168 546.472 265.168L546.547 265.402ZM546.547 274.193C549.035 274.33 551.43 275.221 553.435 276.755C555.44 278.289 556.969 280.399 557.831 282.825C558.693 285.25 558.851 287.885 558.286 290.403C557.72 292.921 556.456 295.211 554.65 296.992C552.843 298.772 550.573 299.964 548.121 300.42C545.669 300.876 543.141 300.577 540.851 299.558C538.562 298.54 536.609 296.847 535.236 294.69C533.863 292.533 533.13 290.005 533.126 287.42C533.225 283.822 534.691 280.411 537.206 277.933C539.721 275.454 543.08 274.11 546.547 274.193ZM42.2626 265.168H57.2577V309.127H42.2626V282.985L28.8421 300.568L15.4215 282.985V309.36H0.0515137V265.168H15.4215L28.8421 282.752L42.2626 265.168ZM176.469 265.168H191.464V309.127H176.469V291.777H150.002V309.36H134.257V265.168H150.002V282.752H176.843V265.168H176.469ZM310.674 265.168H325.67V309.127H310.674V291.777H283.833V309.36H268.463V265.168H283.833V282.752H310.674V265.168ZM469.772 309.127V265.168H517.757L513.858 273.96H485.142V309.127H469.772ZM109.366 265.168H124.361V309.127H109.366V278.006L82.5244 309.127H67.5294V265.168H82.5244V296.289L109.366 265.168ZM625.121 300.257L629.845 291.699H640.416C642.469 291.415 644.353 290.367 645.717 288.75C647.082 287.133 647.834 285.056 647.834 282.907C647.834 280.758 647.082 278.682 645.717 277.065C644.353 275.448 642.469 274.4 640.416 274.116H621.222V309.282H606.227V265.168H648.364C652.58 265.488 656.509 267.506 659.311 270.792C662.113 274.077 663.566 278.37 663.359 282.752C663.546 287.129 662.087 291.41 659.289 294.691C656.491 297.972 652.573 299.996 648.364 300.335L625.121 300.257ZM860.919 273.882L864.743 265.09H826.355C821.114 265.652 816.26 268.209 812.73 272.269C809.201 276.329 807.248 281.602 807.248 287.07C807.248 292.537 809.201 297.811 812.73 301.87C816.26 305.93 821.114 308.488 826.355 309.049H860.919L864.743 300.257H834.078C830.876 300.002 827.885 298.502 825.703 296.057C823.521 293.612 822.309 290.402 822.309 287.07C822.309 283.737 823.521 280.528 825.703 278.083C827.885 275.638 830.876 274.138 834.078 273.882H860.919ZM793.816 273.882L797.64 265.09H759.252C754.011 265.652 749.157 268.209 745.628 272.269C742.098 276.329 740.145 281.602 740.145 287.07C740.145 292.537 742.098 297.811 745.628 301.87C749.157 305.93 754.011 308.488 759.252 309.049H793.816L797.64 300.257H766.975C763.773 300.002 760.782 298.502 758.6 296.057C756.418 293.612 755.206 290.402 755.206 287.07C755.206 283.737 756.418 280.528 758.6 278.083C760.782 275.638 763.773 274.138 766.975 273.882H793.816ZM701.746 265.168C685.926 265.168 673.031 274.971 673.031 287.109C673.031 299.246 685.926 309.127 701.746 309.127C717.566 309.127 730.537 299.324 730.537 287.109C730.537 274.894 717.641 265.168 701.746 265.168ZM701.746 273.96C704.237 274.097 706.635 274.99 708.642 276.527C710.648 278.065 712.176 280.179 713.036 282.61C713.896 285.04 714.049 287.678 713.478 290.198C712.906 292.718 711.635 295.008 709.821 296.785C708.007 298.562 705.731 299.748 703.274 300.195C700.817 300.643 698.287 300.332 695.999 299.302C693.71 298.271 691.763 296.567 690.399 294.4C689.035 292.232 688.314 289.697 688.326 287.109C688.462 283.545 689.948 280.182 692.461 277.749C694.974 275.316 698.311 274.01 701.746 274.116V273.96Z" fill="#012265"/>
</g>
<defs>
<clipPath id="clip0_453_868">
<rect width="998.897" height="308.72" fill="white" transform="translate(0.0515137 0.640015)"/>
</clipPath>
</defs>
</svg>
