<svg width="11" height="6" viewBox="0 0 11 6" fill="none" xmlns="http://www.w3.org/2000/svg">
<path d="M5.50727 0.00666373C7.05707 0.00666373 8.60688 0.00666373 10.1567 0.00666373C10.4598 0.00666373 10.7284 0.0733021 10.9006 0.339855C11.0866 0.6264 11.0108 0.932937 10.6802 1.25946C9.34389 2.55891 8.00073 3.8517 6.66446 5.14448C6.47159 5.33107 6.27873 5.52432 6.07898 5.71091C5.67258 6.09075 5.33507 6.09741 4.94245 5.72423C3.37888 4.21154 1.82219 2.70552 0.258607 1.19283C0.0244148 0.966256 -0.0720174 0.706366 0.0588548 0.406494C0.189727 0.106621 0.45836 0 0.788984 0C2.35945 0.00666384 3.9368 0.00666373 5.50727 0.00666373Z" fill="#232C77"/>
</svg>
